<svg id="Layer_1" data-name="Layer 1" xmlns="http://www.w3.org/2000/svg" viewBox="0 0 2915.8 716.45"><defs><style>.cls-1{fill:#264697;}</style></defs><path class="cls-1" d="M54.9,194.12q-25.8-23.85-25.8-59.2c0-23.5,8.6-43.3,25.8-59.2s39.5-23.9,66.8-23.9,49.7,7.6,66.8,22.9,25.8,34.4,25.8,57.3q0,37.2-25.8,61.6C171.3,209.82,149,218,121.7,218S72.1,210.12,54.9,194.12Z" transform="translate(-29.1 -51.78)"/><rect class="cls-1" x="18.1" y="198.48" width="149" height="508"/><path class="cls-1" d="M390.9,734.12q-65.4-33.9-102.2-94t-36.8-136.5q0-76.35,36.8-136.5t102.2-94q65.4-33.9,147.5-33.9,81.15,0,141.8,33.9T768.5,370L653,432.12q-40.05-70.65-115.5-70.7-58.2,0-96.4,38.2c-25.5,25.5-38.2,60.1-38.2,104.1s12.7,78.6,38.2,104.1S498.7,646,537.5,646q76.35,0,115.5-70.7l115.5,63q-27.75,61-88.3,95.5t-141.8,34.4Q456.2,767.92,390.9,734.12Z" transform="translate(-29.1 -51.78)"/><path class="cls-1" d="M1355.5,545.52H966.9q10.5,47.7,49.7,75.4t97.4,27.7q40.05,0,71.1-11.9c20.7-8,39.9-20.5,57.8-37.7l79.2,85.9q-72.6,83.1-212,83.1-86.85,0-153.7-33.9t-103.1-94Q817,580,817,503.62q0-75.45,35.8-136.1T951.1,273q62.55-33.9,139.9-33.9,75.45,0,136.5,32.5t96,93.1q34.8,60.6,34.8,140.8C1358.4,507.32,1357.4,520.72,1355.5,545.52ZM1007,380.32q-34.35,28.65-42,78.3h253q-7.65-48.75-42-77.8t-84-29.1Q1041.3,351.72,1007,380.32Z" transform="translate(-29.1 -51.78)"/><path class="cls-1" d="M1560.9,734.12q-65.4-33.9-102.2-94t-36.8-136.5q0-76.35,36.8-136.5t102.2-94q65.4-33.9,147.5-33.9,81.15,0,141.8,33.9t88.3,96.9L1823,432.12q-40.05-70.65-115.5-70.7-58.2,0-96.4,38.2c-25.5,25.5-38.2,60.1-38.2,104.1s12.7,78.6,38.2,104.1,57.6,38.2,96.4,38.2q76.35,0,115.5-70.7l115.5,63q-27.75,61-88.3,95.5t-141.8,34.4Q1626.2,767.92,1560.9,734.12Z" transform="translate(-29.1 -51.78)"/><path class="cls-1" d="M2410,295.82q63.9,56.85,64,171.4v293.1H2334.6v-64q-42,71.55-156.6,71.6-59.25,0-102.6-20-43.5-20.1-66.4-55.4c-15.3-23.5-22.9-50.3-22.9-80.2q0-71.55,53.9-112.7t166.6-41.1H2325c0-32.5-9.9-57.4-29.6-75s-49.3-26.3-88.8-26.3a259,259,0,0,0-80.7,12.9c-26.4,8.6-48.9,20.2-67.3,34.8l-53.5-104.1q42-29.55,100.7-45.8a451.8,451.8,0,0,1,120.8-16.2Q2346.15,239.12,2410,295.82Zm-127,354.3q29.55-17.7,42-52v-52.5H2222.8q-91.65,0-91.7,60.2,0,28.65,22.4,45.3c14.9,11.1,35.5,16.7,61.6,16.7Q2253.5,667.67,2283,650.12Z" transform="translate(-29.1 -51.78)"/><path class="cls-1" d="M2944.9,735.52c-14.6,10.8-32.6,19-53.9,24.3a273.31,273.31,0,0,1-67.3,8.1q-91.65,0-141.8-46.8t-50.1-137.5v-220h-79.2V249.25h79.2V51.78h148.9V249.25h127.9V363.62H2780.7v218.1q0,32.55,16.7,50.1t47.3,17.7q35.25,0,60.2-19.1Z" transform="translate(-29.1 -51.78)"/></svg>